<?xml version="1.0" encoding="utf-8"?>
<!-- Generator: Adobe Illustrator 26.3.1, SVG Export Plug-In . SVG Version: 6.00 Build 0)  -->
<svg version="1.1" id="Layer_1" xmlns="http://www.w3.org/2000/svg" xmlns:xlink="http://www.w3.org/1999/xlink" x="0px" y="0px"
	 viewBox="0 0 344.9 510.2" style="enable-background:new 0 0 344.9 510.2;" xml:space="preserve">
<g id="_x33_zbc15.tif">
	<g>
		<path d="M182.5,0c3.8,0.9,7.7,1.8,11.5,2.8c38.4,9.9,65.6,40.8,70,80.3c1.2,10.9,0.3,21.9,0.6,32.9c0.1,2.5,0.8,5.3,2.1,7.3
			c12.8,19.6,2,45.1-21,49.5c-1.6,0.3-3.8,2.3-4.1,3.8c-3.1,16.3-11.1,29.6-23.4,40.7c-1.4,1.2-2.5,3.6-2.5,5.4
			c-0.2,5.6-1.9,12.6,0.7,16.6c2.6,3.9,9.7,4.9,14.9,6.9c23,9,46,17.8,69,26.8c28.1,10.9,44.1,33.9,44.5,64
			c0.2,15.6,0.1,31.3,0,46.9c0,1.8,0.1,4.2-0.9,5.3c-2,2.1-4.8,4.6-7.3,4.6c-2.2,0-4.9-2.8-6.4-5c-1.1-1.5-0.8-4.2-0.8-6.3
			c-0.1-16.3,0.2-32.6-0.3-48.9c-0.6-21-11.5-36-30.1-44.5c-17.1-7.8-35.1-13.9-53.2-20.9c-1.5,2.9-2.9,5.6-4.3,8.3
			c-5.8,11.6-11.5,23.2-17.3,34.7c-6.2,12.3-12.4,14.2-24.4,7.2c-4.2,4.5-6.2,9-5,15.9c7.4,41.3,14.2,82.7,21.2,124.1
			c0.8,4.7-0.5,8.9-3.8,12.4c-6.2,6.8-12.3,13.5-18.4,20.3c-1.2,1.3-2.3,2.7-3.9,4.6c27.1,0,53.3,0,80.2,0c0-2,0-4,0-5.9
			c0-46.2,0-92.5,0-138.7c0-6.7,2.6-10,7.8-9.8c4.1,0.1,6.5,2.4,7.1,6.3c0.3,1.8,0.2,3.7,0.2,5.5c0,45.4,0,90.8,0,136.2
			c0,2,0,4,0,6.7c4,0,7.7,0,11.5,0c8.6,0,17.3,0,25.9,0c5.7,0,6.7-1,6.7-6.7c0-21.1,0-42.2,0-63.4c0-8.2,2.2-11.7,7.5-11.8
			c5.6-0.1,8,3.4,8,11.8c0,20.8-0.3,41.6,0.1,62.4c0.3,14.2-9,22.9-22.7,22.8c-64.1-0.4-128.3-0.2-192.4-0.2c-1.5,0-3,0.1-4.5-0.1
			c-4.2-0.4-7.2-3.6-7.1-7.5c0.1-4,3-7.2,7.3-7.3c9.5-0.2,18.9,0,29.6,0c-1.6-1.9-2.6-3.3-3.7-4.5c-6.1-6.8-12.3-13.6-18.4-20.3
			c-3.8-4.1-4.8-8.8-3.8-14.3c6.6-38.6,13.1-77.2,19.6-115.8c0.4-2.1,0.4-4.4,1.1-6.4c2.4-6.5-0.1-11.6-4.8-16.4
			c-1,0.6-2.1,1.2-3.2,1.9c-7.5,4.5-15.3,2.3-19.6-6c-7-13.6-13.7-27.3-20.5-40.9c-0.8-1.6-1.6-3.2-2.7-5.3
			c-13.1,5.1-26,10.2-38.9,15.1c-9.9,3.8-20,7-28,14.7c-9.8,9.5-16.3,20.7-16.3,34.6c-0.2,52.6-0.2,105.1-0.3,157.7
			c0,3.3,1,5.7,4.6,5.7c12.9,0.1,25.9,0,39.5,0c0-2.3,0-4.2,0-6.1c0-45.4,0-90.8,0-136.2c0-1.8-0.1-3.7,0.1-5.5
			c0.4-4.2,2.8-6.6,7.1-6.9c4.1-0.2,7.3,2.5,7.8,6.7c0.2,1.6,0.1,3.3,0.1,5c0,45.4,0,90.8,0,136.2c0,2,0,4,0,6.8c4.9,0,9.6,0,14.3,0
			c5.8,0,9.3,2.9,9.3,7.5c0,4.6-3.5,7.4-9.3,7.5c-21.4,0-42.9,0-64.3,0C9.4,511,5.4,508.2,0,494c0-54.2,0-108.5,0-162.7
			c0.3-0.8,0.7-1.5,0.8-2.3c3.2-27.7,18.6-45.9,43.9-56c25.4-10.2,51-19.7,76.4-29.7c10.1-4,8-0.9,8.2-12.2c0-2.2,0.4-4.4-0.1-6.5
			c-0.6-2.4-1.4-5.2-3.1-6.6c-12.8-10.8-20.8-24.4-24.1-40.7c-0.6-2.9-1.3-4.2-4.4-4.7c-22.7-3.9-33.5-29.7-20.6-48.9
			c1.1-1.6,1.7-3.9,1.8-5.9c0.2-9.3-0.1-18.6,0.2-27.9c1.5-43,32-79.1,74-87.9c2.5-0.5,5-1.3,7.5-1.9C167.8,0,175.2,0,182.5,0z
			 M115.7,114.7c0,17.1,0,33.4,0,49.7c0,2.3,0.5,4.6,0.8,6.9c3.9,29.4,29,48.9,61.1,47.3c26.6-1.3,49.4-25.7,49.8-53.5
			c0.2-17.4,0.1-34.9,0-52.3c0-1.4-0.1-3.2-0.9-4.2c-5.7-6.4-11.6-12.7-17.4-18.9C180.3,107.3,149.6,116.3,115.7,114.7z
			 M248.9,110.2c3.3-36.8-7-67.5-40.8-85.7c-29.5-15.9-58.9-12.7-85.2,8.1c-25.2,19.9-31.2,47.4-28.4,78.8c2.7-1.2,6.1-1.6,6.8-3.2
			c3.6-7.8,9.9-8.9,17.3-8.6c19.8,0.7,39-2.7,57.3-10.3c8.5-3.6,16.6-8.2,24.8-12.6c4.8-2.6,10.4-5,14.4-1.2
			c9.4,8.8,17.8,18.6,26.6,28.1c0.2,0.2,0.4,0.6,0.4,0.9C241.8,109.3,244.7,110.5,248.9,110.2z M165.8,333.3
			c-0.5,1.8-0.9,3.3-1.2,4.7c-3.3,19.6-6.7,39.2-10,58.8c-3.3,19.6-6.6,39.2-10,58.8c-0.6,3.5-0.1,6.2,2.6,8.9
			c6.2,6.3,11.9,13,17.8,19.5c2.4,2.6,4.8,5.2,7.4,8c8.5-9.4,16.4-18.4,24.7-27c3-3.2,3.6-6.1,2.9-10.2c-5-28.6-9.8-57.2-14.6-85.8
			c-2-11.9-4.1-23.8-6.1-35.8C174.7,333.3,170.4,333.3,165.8,333.3z M200,228.6c-18.1,7.3-36.6,7-55.1,0.5
			c-0.9,7.8-0.8,14.3,4.8,20.3c7.1,7.6,13.3,16.1,19.9,24.2c0.9,1.1,1.9,2,3.1,3.3c7.1-8.8,13.4-17.6,20.8-25.4
			C199.9,244.9,201.7,237.6,200,228.6z M113.4,262.6c7.4,14.8,14.5,29.1,21.9,43.8c8.8-6.3,17.4-12.4,26.1-18.6
			c-9.2-11.4-18.1-22.3-27-33.4C127.4,257.2,120.6,259.8,113.4,262.6z M210.5,254.5c-9,11.2-17.9,22.2-27,33.4
			c8.9,6.3,17.4,12.3,26.2,18.6c7.4-14.9,14.6-29.2,21.8-43.8C224.3,259.8,217.5,257.2,210.5,254.5z M186.7,308.8
			c-3.9-2.8-7.9-5.8-12-8.5c-1-0.6-3-0.9-3.9-0.3c-4.4,2.8-8.5,6-12.7,9c4.2,8.5,4.2,8.7,9.7,8.5
			C174.9,317.2,183.9,320.7,186.7,308.8z M100.5,125.9c-8.6,1.3-14.1,7.8-13.9,16.1c0.2,8.1,6.1,14.5,13.9,15.2
			C100.5,146.8,100.5,136.4,100.5,125.9z M243.3,125.3c0,10.6,0,21.3,0,32c8.9-2.3,14.2-8.9,13.7-16.9
			C256.6,132.6,251.1,126.5,243.3,125.3z"/>
	</g>
</g>
</svg>
