<?xml version="1.0" encoding="utf-8"?>
<!-- Generator: Adobe Illustrator 25.0.1, SVG Export Plug-In . SVG Version: 6.00 Build 0)  -->
<svg version="1.1" id="Layer_1" xmlns="http://www.w3.org/2000/svg" xmlns:xlink="http://www.w3.org/1999/xlink" x="0px" y="0px"
	 viewBox="0 0 2067.1 510.6" style="enable-background:new 0 0 2067.1 510.6;" xml:space="preserve">
<style type="text/css">
	.st0{fill:#dbdee4;}
</style>
<g>
	<path class="st0" d="M308.4,21.2C173.6,21.2,0,129.9,0,203.7c0,21.6,27.6,49.2,30.5,49.2c0.7,0,0.7,0,0.7-0.7
		c11.9-32.8,105-170.6,285.3-170.6c74.5,0,128.1,44.7,128.1,127.4c0,137.1-102.8,167.6-137.8,167.6c-8.2,0-16.4-0.7-24.6-0.7
		c-11.2,0-19.4,1.5-21.6,9.7c2.2,0,24.6,13.4,61.1,13.4c105.8,0,169.8-107.3,169.8-200.4C491.7,87.5,411.9,21.2,308.4,21.2z"/>
	<path class="st0" d="M251,364.6c0-52.9,26.1-178,26.1-186.2c0-54.4-46.9-55.9-73.7-55.9c8.9,14.9,10.4,41,10.4,58.1
		c0,61.8-9.7,114-9.7,178.8c0,28.3,18.6,67,50.7,67c6.7,0,9.7-1.5,9.7-5.2c0-3-3-5.2-5.2-8.2C251,395.9,251,373.5,251,364.6z"/>
	<path class="st0" d="M537.1,136.6c-20.9,0-38,15.6-38,34.3c0,18.6,17.1,34.3,38,34.3c21.6,0,38.7-15.6,38.7-34.3
		C575.8,152.3,558.7,136.6,537.1,136.6z"/>
	<path class="st0" d="M522.9,209.6c-8.2,0-14.2,0.7-19.4,0.7c6.7,8.2,7.4,25.3,7.4,33.5c0,48.4-3,87.9-3,117.7
		c0,20.1,6,33.5,30.5,33.5c14.1,0,15.6,0,17.9-2.2c-3-2.2-7.4-1.5-7.4-20.1c0-17.9,3.7-53.6,17.9-128.1
		C566.9,214.1,543.8,209.6,522.9,209.6z"/>
	<path class="st0" d="M736,104.6c-8.9,0-17.9,2.2-24.6,4.5l-11.2,3.7c8.2,12.7,12.7,27.6,12.7,45.4c0,132.6-40.2,201.9-52.9,201.9
		c-21.6,0-11.2-146.8-46.2-146.8c-16.4,0-46.2,8.9-46.2,9.7c38.7,50.7,24.6,172.8,90.1,172.8c65.6,0,113.2-210.1,113.2-257
		C768.8,109.8,750.9,104.6,736,104.6z"/>
	<path class="st0" d="M1180,273.7c-11.9-8.9-21.6-11.2-44.7-29.1c5.2-8.2,12.7-12.7,8.9-33.5c-5.2-14.2-17.9-19.4-29.8-19.4
		c-23.8,0-35,19.4-32.8,40.2c0,3,1.5,32,35,52.1c-72.8,23.3-57,108.3,14.1,111.2c-44.8,31.7-88.2-18.5-129.6-61.3
		c61.8-23.8,71.5-52.1,71.5-80.5c0-29.1-15.6-40.2-42.5-40.2c-17.1,0-35,4.5-52.1,12.7c0-2.2,0.7-3.7,0.7-4.5s0-0.7,0.7-1.5
		c0-29.8-24.6-34.3-44.7-34.3c-8.2,0-15.6,0.7-19.4,0.7c11.6,16.5,9.4,72.2,5.8,117.2c-0.8,0.9-1.3,2.2-1.3,4.2
		c0,14.2-24.6,50.7-65.6,50.7c-3.7,0-26.8,0.7-32.8-19.4c70,0,89.4-50.7,89.4-72.3c0-44.7-25.3-60.3-67-60.3
		c-49.9,0-85.7,44-85.7,101.3c0,47.7,26.1,76.7,73.7,76.7c37,0,69.5-8.2,85.3-38.2c-0.5,5.2-0.9,9.7-1.2,12.9
		c0,20.1,17.9,33.5,30.5,33.5c6.7,0,11.2,0,13.4-0.7s3.7-0.7,4.5-1.5c-10.4-6-8.2-43.2,0.7-44.7c38.7,41.7,73.7,154.2,169.1,100.6
		c16.8-13.9,14.2-40.3,8.4-51.4c37.2-3.8,73.5-20.9,73.5-58.8C1216.5,326.6,1215.2,298.5,1180,273.7z M810.5,300.5
		c0-41.7,11.9-58.9,29.1-58.9c11.9,0,18.6,11.9,18.6,26.1c0,26.8-26.8,36.5-46.9,42.5C811.2,307.2,810.5,304.2,810.5,300.5z
		 M965.4,316.9c8.2-42.5,19.4-61.8,40.2-61.8c11.2,0,19.4,1.5,19.4,17.1c0,24.6-41,51.4-54.4,51.4
		C966.9,323.6,965.4,321.4,965.4,316.9z M1112.9,214.8c0-1.5,1.5-2.2,5.2-2.2c14.1,0,8.9,14.9,6.7,23.1
		C1118.9,229,1115.1,221.5,1112.9,214.8z M1129.3,369c-8.9,0-27.6-11.2-25.3-31.3c0-7.4,6.7-22.3,49.9-28.3
		C1173.2,336.3,1163.6,372.8,1129.3,369z"/>
	<path class="st0" d="M1514.4,450.2c0-81.9,3-123.7,6.7-257c8.2,0,16.4-1.5,24.6-3.7c8.9-2.2,14.1-8.2,17.1-16.4
		c2.2-4.5,3.7-9.7,4.5-14.9c-14.2,5.2-27.6,6-42.5,6c6-53.6,6-78.2,17.1-78.2c20.1,0,11.2,49.2,2.2,58.1c-6,6.7-9.7,5.2-9.7,6
		l0.8,0.7c5.2,5.2,11.2,6,16.4,6h3.7c6.7-0.7,12.7-3,17.9-6c8.9-5.2,18.6-14.2,18.6-29.1c0-47.7-58.8-82.7-99.1-82.7
		c-11.8,0-23.1,3.8-27.3,16c-17.4-10.2-36.9-16-53.3-16c-14.9,0-29,6-29,27.6c0,35,3.7,67,3.7,99.8c-41,3.7-48.4-1.5-48.4,18.6
		c0,8.2,0,13.4,6.7,13.4c11.2,0,29.8-2.2,41-3c0.9,37.9,1.8,75.6,2.5,110.9c-0.1,0.5-0.2,1-0.2,1.6c0,14.2-24.6,50.7-65.6,50.7
		c-3.7,0-26.8,0.7-32.8-19.4c70,0,89.4-50.7,89.4-72.3c0-44.7-25.3-60.3-67-60.3c-49.9,0-85.7,44-85.7,101.3
		c0,47.7,26.1,76.7,73.7,76.7c39.9,0,74.5-9.5,88.7-45.6c0.8,39.7,1.3,75.1,1.3,102.3c0,29.1,17.1,69.3,47.7,69.3
		c5.2,0,8.2-1.5,8.2-4.5s-3-6-5.2-8.2c-6.7-17.1-7.4-38-7.4-47.7c0-81,2.9-122.8,6.6-252.5c9.3-0.7,19.3-1.8,26.3-2.3
		c2.2,94.6,4.5,188.5,4.5,245.8c0,29.1,17.1,69.3,47.7,69.3c5.2,0,8.2-1.5,8.2-4.5s-3-6-5.2-8.2
		C1515.2,480.8,1514.4,459.9,1514.4,450.2z M1279,300.5c0-41.7,11.9-58.9,29.1-58.9c11.9,0,18.6,11.9,18.6,26.1
		c0,26.8-26.8,36.5-46.9,42.5C1279.8,307.2,1279,304.2,1279,300.5z M1467.4,156.6c0,2.1,0.1,4.2,0.1,6.4c-7.5,1-15.1,1.3-23.2,1.3
		c6-53.6,6-78.2,17.1-78.2c1,0,1.9,0.2,2.8,0.4c0.6,18.1,1.8,35.6,2.6,52.9"/>
	<path class="st0" d="M2061.9,70.3l-4.5-15.6c-21.6,39.5-107.3,53.6-143,57.4c-6-53.6-70-46.9-90.1-46.9
		c15.6,11.2,18.6,38,18.6,52.9c-42.5,0-83.4,19.4-83.4,36.5c0,14.2,11.9,22.3,11.2,22.3c17.9-23.8,48.4-19.4,72.3-19.4
		c6.1,76,3.4,135.3,4.6,174.3c-14.5,18.4-34.8,30.6-75.3,30.6c-9.7,0-38-11.9-38-53.6c0-17.9,12.7-76,35-76c5.2,2.2,8.2,6,8.2,12.7
		c0,5.2-1.5,11.9-1.5,15.6c0,6,13.4,12.7,27.6,12.7c15.6,0,28.3-6.7,28.3-27.6c0-32-31.3-46.2-64.8-46.2
		c-50.7,0-87.2,52.1-87.2,108.8c0,4.4,0.3,8.7,0.9,12.8c-8.7,16.3-30.3,37.1-61.2,37.1c-3.7,0-26.8,0.7-32.8-19.4
		c70,0,89.4-50.7,89.4-72.3c0-44.7-25.3-60.3-67-60.3c-49.9,0-85.7,44-85.7,101.3c0,47.7,26.1,76.7,73.7,76.7
		c39.5,0,73.9-9.4,88.4-44.7c11.7,30.4,40.3,50,73.3,50h6.7c48.7-2.8,68.6-19.1,83.3-37.4c2.4,23.2,8.3,34.5,23.3,32.2
		c51.4,0,76.7-63.3,76.7-65.6c-2.2-0.7-4.5-1.5-6-0.7c-9.7,6-27.6,32-44,32c-5.2,0-4.5-5.2-4.5-6c0-28.3,11.2-133.3,17.1-189.2
		c105.8-3.7,112.5-8.2,117-10.4c21.6-6,38.7-20.1,38.7-43.2C2067.1,90.4,2064.2,79.3,2061.9,70.3z M1575.5,300.5
		c0-41.7,11.9-58.9,29.1-58.9c11.9,0,18.6,11.9,18.6,26.1c0,26.8-26.8,36.5-46.9,42.5C1576.2,307.2,1575.5,304.2,1575.5,300.5z"/>
</g>
</svg>
