<?xml version="1.0" encoding="utf-8"?>
<!-- Generator: Adobe Illustrator 28.1.0, SVG Export Plug-In . SVG Version: 6.00 Build 0)  -->
<svg version="1.1" id="Layer_1" xmlns="http://www.w3.org/2000/svg" xmlns:xlink="http://www.w3.org/1999/xlink" x="0px" y="0px"
	 viewBox="0 0 27 18" style="enable-background:new 0 0 27 18;" xml:space="preserve">
<style type="text/css">
	.st0{enable-background:new    ;}
</style>
<g class="st0">
	<path d="M26.4,15v1.3c0,0.7-1,1.3-2.1,1.3H2.8c-1.2,0-2.1-0.6-2.1-1.3V15h2.1h21.4H26.4z M4.1,12V2.6c0-1.2,1-2.1,2.1-2.1h14.6
		c1.2,0,2.1,1,2.1,2.1V12c0,1.2-1,2.1-2.1,2.1H6.2C5,14.1,4.1,13.2,4.1,12z M5.8,12c0,0.2,0.2,0.4,0.4,0.4h14.6
		c0.2,0,0.4-0.2,0.4-0.4V2.6c0-0.2-0.2-0.4-0.4-0.4H6.2C6,2.1,5.8,2.3,5.8,2.6V12z M14.8,16.1c0-0.1-0.1-0.2-0.2-0.2h-2.1
		c-0.1,0-0.2,0.1-0.2,0.2c0,0.1,0.1,0.2,0.2,0.2h2.1C14.7,16.3,14.8,16.2,14.8,16.1z"/>
</g>
</svg>
