<?xml version="1.0" encoding="utf-8"?>
<!-- Generator: Adobe Illustrator 28.1.0, SVG Export Plug-In . SVG Version: 6.00 Build 0)  -->
<svg version="1.1" id="Layer_1" xmlns="http://www.w3.org/2000/svg" xmlns:xlink="http://www.w3.org/1999/xlink" x="0px" y="0px"
	 viewBox="0 0 24 25" style="enable-background:new 0 0 24 25;" xml:space="preserve">
<style type="text/css">
	.st0{enable-background:new    ;}
</style>
<g class="st0">
	<path d="M24,12.5c0,6.6-5.4,12-12,12s-12-5.4-12-12s5.4-12,12-12S24,5.9,24,12.5z M5.5,14.7c-0.2-0.7-0.4-1.5-0.4-2.2
		c0-0.8,0.1-1.5,0.4-2.2L2.9,7.7c-0.8,1.4-1.2,3.1-1.2,4.8s0.4,3.4,1.2,4.8L5.5,14.7z M17.1,12.5c0-2.8-2.3-5.1-5.1-5.1
		c-2.8,0-5.1,2.3-5.1,5.1s2.3,5.1,5.1,5.1C14.8,17.6,17.1,15.3,17.1,12.5z M7.2,3.4L9.8,6c0.7-0.2,1.5-0.4,2.2-0.4
		c0.8,0,1.5,0.1,2.2,0.4l2.6-2.6c-1.4-0.8-3.1-1.2-4.8-1.2C10.3,2.2,8.6,2.7,7.2,3.4z M16.8,21.6L14.2,19c-0.7,0.2-1.4,0.4-2.2,0.4
		c-0.8,0-1.5-0.1-2.2-0.4l-2.6,2.6c1.4,0.8,3.1,1.2,4.8,1.2C13.7,22.8,15.4,22.3,16.8,21.6z M21.1,17.3c0.8-1.4,1.2-3.1,1.2-4.8
		s-0.4-3.4-1.2-4.8l-2.6,2.6c0.2,0.7,0.4,1.5,0.4,2.2s-0.1,1.5-0.4,2.2L21.1,17.3z"/>
</g>
</svg>
