<?xml version="1.0" encoding="utf-8"?>
<!-- Generator: Adobe Illustrator 28.1.0, SVG Export Plug-In . SVG Version: 6.00 Build 0)  -->
<svg version="1.1" id="Layer_1" xmlns="http://www.w3.org/2000/svg" xmlns:xlink="http://www.w3.org/1999/xlink" x="0px" y="0px"
	 viewBox="0 0 71.3 31.3" style="enable-background:new 0 0 71.3 31.3;" xml:space="preserve">
<style type="text/css">
	.st0{fill:#030505;}
	.st1{font-family:'RosesBolero';}
	.st2{font-size:4px;}
	.st3{fill:#030404;}
	.st4{font-family:'CaralanceSignature';}
	.st5{font-size:27px;}
	.st6{fill-rule:evenodd;clip-rule:evenodd;fill:url(#SVGID_1_);}
	.st7{fill-rule:evenodd;clip-rule:evenodd;fill:url(#SVGID_00000054967219095296796180000012201482213124027786_);}
	.st8{fill-rule:evenodd;clip-rule:evenodd;fill:url(#SVGID_00000148642015753449569960000006401674540291001767_);}
	.st9{fill-rule:evenodd;clip-rule:evenodd;fill:url(#SVGID_00000031900171614845157160000001744080313924773766_);}
	.st10{fill-rule:evenodd;clip-rule:evenodd;fill:url(#SVGID_00000129890742598276156210000010612018912331317176_);}
	.st11{fill-rule:evenodd;clip-rule:evenodd;fill:url(#SVGID_00000070829564514110169090000006644402105052988306_);}
	.st12{fill-rule:evenodd;clip-rule:evenodd;fill:url(#SVGID_00000030452252001190075420000001564952660407069582_);}
	.st13{fill-rule:evenodd;clip-rule:evenodd;fill:url(#SVGID_00000125598157265748224630000018239228605544897947_);}
	.st14{fill-rule:evenodd;clip-rule:evenodd;fill:url(#SVGID_00000039133738959694647730000003142896951585739655_);}
	.st15{fill-rule:evenodd;clip-rule:evenodd;fill:url(#SVGID_00000023974803586156705000000016660673599584425130_);}
	.st16{fill-rule:evenodd;clip-rule:evenodd;fill:url(#SVGID_00000029745967102219964410000013961868501141345698_);}
</style>
<text transform="matrix(1 0 0 1 32.9866 28.1811)" class="st0 st1 st2">D</text>
<text transform="matrix(1 0 0 1 35.4067 28.1811)" class="st0 st1 st2">a</text>
<text transform="matrix(1 0 0 1 37.8267 28.1811)" class="st0 st1 st2">n</text>
<text transform="matrix(1 0 0 1 40.3267 28.1811)" class="st0 st1 st2">ı</text>
<text transform="matrix(1 0 0 1 41.1507 28.1811)" class="st0 st1 st2">ş</text>
<text transform="matrix(1 0 0 1 43.4906 28.1811)" class="st0 st1 st2">m</text>
<text transform="matrix(1 0 0 1 47.3746 28.1811)" class="st0 st1 st2">a</text>
<text transform="matrix(1 0 0 1 49.7946 28.1811)" class="st0 st1 st2">n</text>
<text transform="matrix(1 0 0 1 52.2947 28.1811)" class="st0 st1 st2">l</text>
<text transform="matrix(1 0 0 1 52.8187 28.1811)" class="st0 st1 st2">ı</text>
<text transform="matrix(1 0 0 1 53.6427 28.1811)" class="st0 st1 st2">k</text>
<text transform="matrix(1 0 0 1 55.7987 28.1811)" class="st0 st1 st2"> </text>
<text transform="matrix(1 0 0 1 56.7987 28.1811)" class="st0 st1 st2">&amp;</text>
<text transform="matrix(1 0 0 1 59.2706 28.1811)" class="st0 st1 st2"> </text>
<text transform="matrix(1 0 0 1 60.2706 28.1811)" class="st0 st1 st2">A</text>
<text transform="matrix(1 0 0 1 62.5307 28.1811)" class="st0 st1 st2">j</text>
<text transform="matrix(1 0 0 1 63.2707 28.1811)" class="st0 st1 st2">a</text>
<text transform="matrix(1 0 0 1 65.6907 28.1811)" class="st0 st1 st2">n</text>
<text transform="matrix(1 0 0 1 68.1907 28.1811)" class="st0 st1 st2">s</text>
<text transform="matrix(1 0 0 1 33.5204 22.4731)" class="st3 st4 st5">N</text>
<text transform="matrix(1 0 0 1 47.1823 22.4731)" class="st3 st4 st5">L</text>
<text transform="matrix(1 0 0 1 53.0954 22.4731)" class="st3 st4 st5">M</text>
<g>
	
		<linearGradient id="SVGID_1_" gradientUnits="userSpaceOnUse" x1="196.6157" y1="21.0874" x2="210.5092" y2="21.0874" gradientTransform="matrix(-1 0 0 1 226.1328 0)">
		<stop  offset="0" style="stop-color:#DC5809"/>
		<stop  offset="0.5025" style="stop-color:#F9B532"/>
		<stop  offset="1" style="stop-color:#FFFFFF"/>
	</linearGradient>
	<path class="st6" d="M18.5,12.8l9,15.7c1.3,2.3,2,0.3,2,0.2c-0.4,2.6-2,2.7-4.3,1.6c-0.7-0.3-1-0.9-1.2-1.3l-7.1-16.7
		c-0.3-0.8-0.9-0.9-1.2-0.6c0.2-0.3,0.5-0.4,0.8-0.4C17.1,11.2,18,11.8,18.5,12.8L18.5,12.8z"/>
	
		<linearGradient id="SVGID_00000096047942164891764600000015230785939766220181_" gradientUnits="userSpaceOnUse" x1="204.6665" y1="18.9884" x2="214.3431" y2="18.9884" gradientTransform="matrix(-1 0 0 1 226.1328 0)">
		<stop  offset="0" style="stop-color:#DC5809"/>
		<stop  offset="0.5025" style="stop-color:#F9B532"/>
		<stop  offset="1" style="stop-color:#FFFFFF"/>
	</linearGradient>
	<path style="fill-rule:evenodd;clip-rule:evenodd;fill:url(#SVGID_00000096047942164891764600000015230785939766220181_);" d="
		M15.4,17.8l0-4.9c0-0.5,0.1-0.9,0.3-1.2c0.5-0.2,0.8,0.3,1,0.7l3,8.1l0,4.6c0,0.5-0.1,0.9-0.2,1.2c-0.6,0.4-1.1-0.8-1.3-1.4
		L15.4,17.8z"/>
	
		<linearGradient id="SVGID_00000096036517818314756570000012468895240206055075_" gradientUnits="userSpaceOnUse" x1="196.4062" y1="24.1164" x2="200.2649" y2="24.1164" gradientTransform="matrix(-1 0 0 1 226.1328 0)">
		<stop  offset="0" style="stop-color:#DC5809"/>
		<stop  offset="0.5025" style="stop-color:#F9B532"/>
		<stop  offset="0.6962" style="stop-color:#F9B634"/>
		<stop  offset="0.766" style="stop-color:#F9B83B"/>
		<stop  offset="0.8157" style="stop-color:#FABC46"/>
		<stop  offset="0.856" style="stop-color:#FAC357"/>
		<stop  offset="0.8904" style="stop-color:#FBCA6D"/>
		<stop  offset="0.9209" style="stop-color:#FCD489"/>
		<stop  offset="0.9485" style="stop-color:#FCE0A9"/>
		<stop  offset="0.9739" style="stop-color:#FEEECF"/>
		<stop  offset="0.9965" style="stop-color:#FFFCF8"/>
		<stop  offset="1" style="stop-color:#FFFFFF"/>
	</linearGradient>
	<path style="fill-rule:evenodd;clip-rule:evenodd;fill:url(#SVGID_00000096036517818314756570000012468895240206055075_);" d="
		M25.9,21.8v-2.6c2.1,4.8,3,7,3.3,7.6c0.3,1.1,0.2,0.9,0.6,0.9c0,0.1,0,0.2,0,0.3c-0.1,1-1.2,1.2-1.4,0.7L25.9,21.8z"/>
	
		<linearGradient id="SVGID_00000142155998535421154500000014956511126343350929_" gradientUnits="userSpaceOnUse" x1="211.2037" y1="-10.4788" x2="211.2037" y2="31.3386" gradientTransform="matrix(-1 0 0 1 226.1328 0)">
		<stop  offset="0" style="stop-color:#DC5809"/>
		<stop  offset="6.754928e-03" style="stop-color:#DE5F0C"/>
		<stop  offset="3.720037e-02" style="stop-color:#E67A18"/>
		<stop  offset="7.215506e-02" style="stop-color:#ED9022"/>
		<stop  offset="0.113" style="stop-color:#F3A129"/>
		<stop  offset="0.1635" style="stop-color:#F6AC2E"/>
		<stop  offset="0.2344" style="stop-color:#F8B331"/>
		<stop  offset="0.4312" style="stop-color:#F9B532"/>
		<stop  offset="1" style="stop-color:#FFFFFF"/>
	</linearGradient>
	<path style="fill-rule:evenodd;clip-rule:evenodd;fill:url(#SVGID_00000142155998535421154500000014956511126343350929_);" d="
		M28.8,27.9c-0.2-0.6-1.2-3.5-3-8.7V7.7c0.2-1.8-0.7-2.2-2.6-1.3c-4.9,2.2-9.8,4.3-14.7,6.5l-0.7,0.3l-4.6,2C2,15.7,2.1,16.1,3,16.9
		l3.2,3l-4.1-2.2C1.7,17.4,1.3,17.2,1,17c-2-1.4-0.4-2.5,1.1-3.3L24.2,1.6c3.3-1.8,5.5-2,5.6,2.5l0.1,11.5l-0.1,11.5
		c0,0.2,0,0.4,0,0.6C29.7,28.1,29.2,29,28.8,27.9L28.8,27.9z"/>
	
		<linearGradient id="SVGID_00000101805351889118446280000013372395343779544735_" gradientUnits="userSpaceOnUse" x1="195.5426" y1="19.9423" x2="208.1521" y2="19.9423" gradientTransform="matrix(-1 0 0 1 226.1328 0)">
		<stop  offset="0" style="stop-color:#DC5809"/>
		<stop  offset="0.5025" style="stop-color:#F9B532"/>
		<stop  offset="1" style="stop-color:#FFFFFF"/>
	</linearGradient>
	<path style="fill-rule:evenodd;clip-rule:evenodd;fill:url(#SVGID_00000101805351889118446280000013372395343779544735_);" d="
		M27.5,28.8l-9.2-15.5c-0.4-0.7-0.8-1.6-2.1-2l2.9-1.1c0.9-0.4,2.1,0.7,2.4,1.5l4.3,10.1l2.8,6.4c0.3,0.7,1,0.6,1.1-0.1
		c0,0.4-0.2,1.3-0.5,1.5C28.7,29.8,28,29.8,27.5,28.8L27.5,28.8z"/>
	
		<linearGradient id="SVGID_00000059995198011421056590000016108354021432695989_" gradientUnits="userSpaceOnUse" x1="206.4312" y1="15.9514" x2="214.089" y2="15.9514" gradientTransform="matrix(-1 0 0 1 226.1328 0)">
		<stop  offset="0" style="stop-color:#DC5809"/>
		<stop  offset="0.5025" style="stop-color:#F9B532"/>
		<stop  offset="1" style="stop-color:#FFFFFF"/>
	</linearGradient>
	<path style="fill-rule:evenodd;clip-rule:evenodd;fill:url(#SVGID_00000059995198011421056590000016108354021432695989_);" d="
		M17.2,12l2.5,6.8c0,0.6,0,1.2,0,1.8c-1.8-2.1-3.5-4.1-3.3-7.8c0-0.4-0.4-0.4-0.7-1.1C16,11.3,16.9,11.2,17.2,12L17.2,12z"/>
	
		<linearGradient id="SVGID_00000075125925242143528050000001533311348772813193_" gradientUnits="userSpaceOnUse" x1="206.9706" y1="22.1136" x2="215.1178" y2="22.1136" gradientTransform="matrix(-1 0 0 1 226.1328 0)">
		<stop  offset="0" style="stop-color:#DC5809"/>
		<stop  offset="0.5025" style="stop-color:#F9B532"/>
		<stop  offset="1" style="stop-color:#FFFFFF"/>
	</linearGradient>
	<path style="fill-rule:evenodd;clip-rule:evenodd;fill:url(#SVGID_00000075125925242143528050000001533311348772813193_);" d="
		M15.4,17.8l3.3,6.1c0.3,0.6,0.2,1.6,0.7,2.4c-0.4,0.5-1.7-0.2-2-0.8l-2-5.9C15.5,19,15.5,18.4,15.4,17.8L15.4,17.8z"/>
	
		<linearGradient id="SVGID_00000049202844045314227010000000570469749539104144_" gradientUnits="userSpaceOnUse" x1="215.4175" y1="17.1834" x2="221.8967" y2="17.1834" gradientTransform="matrix(-1 0 0 1 226.1328 0)">
		<stop  offset="0" style="stop-color:#DC5809"/>
		<stop  offset="0.5025" style="stop-color:#F9B532"/>
		<stop  offset="1" style="stop-color:#FFFFFF"/>
	</linearGradient>
	<path style="fill-rule:evenodd;clip-rule:evenodd;fill:url(#SVGID_00000049202844045314227010000000570469749539104144_);" d="
		M10.1,15.3l0.6,2.6c0,0.7,0,1.4,0,2.1L9,16.6c-0.3-0.6-0.5-1.4-1-1.9C8.5,13.7,9.8,14.8,10.1,15.3L10.1,15.3z"/>
	
		<linearGradient id="SVGID_00000118391999488480907870000017883000538317060768_" gradientUnits="userSpaceOnUse" x1="207.1078" y1="19.8234" x2="218.0788" y2="19.8234" gradientTransform="matrix(-1 0 0 1 226.1328 0)">
		<stop  offset="0" style="stop-color:#DC5809"/>
		<stop  offset="0.5025" style="stop-color:#F9B532"/>
		<stop  offset="1" style="stop-color:#FFFFFF"/>
	</linearGradient>
	<path style="fill-rule:evenodd;clip-rule:evenodd;fill:url(#SVGID_00000118391999488480907870000017883000538317060768_);" d="
		M19.4,26.3c-0.9,0.7-2.3-1-2.7-1.7c-3.9-5.4-6-8.3-6.4-8.7C10,15.4,9,14.3,8.5,14.2l2.5-1c0.7-0.2,1.8,0.2,2.4,1.5l2.1,4.9l2.3,5.4
		C18,25.6,18.8,26.7,19.4,26.3L19.4,26.3z"/>
	
		<linearGradient id="SVGID_00000096054833587675082010000011657028685354370960_" gradientUnits="userSpaceOnUse" x1="209.4635" y1="20.3517" x2="220.6392" y2="20.3517" gradientTransform="matrix(-1 0 0 1 226.1328 0)">
		<stop  offset="0" style="stop-color:#DC5809"/>
		<stop  offset="0.5025" style="stop-color:#F9B532"/>
		<stop  offset="1" style="stop-color:#FFFFFF"/>
	</linearGradient>
	<path style="fill-rule:evenodd;clip-rule:evenodd;fill:url(#SVGID_00000096054833587675082010000011657028685354370960_);" d="
		M13.5,23.6l-2.8-5.7l-1-2.3c-0.4-1-1.3-1.5-1.7-0.9c0.2-0.5,0.6-0.7,1.1-0.5c0.5,0.2,1,0.7,1.5,1.3C11,16,13,19,16.9,24.3
		c0.6,0.9,1.9,2.6,2.6,2c-0.2,0.3-0.5,0.3-1,0.2l0,0c-0.3-0.1-0.6-0.2-1-0.5L14,24.2C13.8,24,13.7,23.8,13.5,23.6L13.5,23.6z"/>
	
		<linearGradient id="SVGID_00000102511437664529990910000005058731720122262959_" gradientUnits="userSpaceOnUse" x1="212.1651" y1="18.1929" x2="223.0859" y2="18.1929" gradientTransform="matrix(-1 0 0 1 226.1328 0)">
		<stop  offset="0" style="stop-color:#DC5809"/>
		<stop  offset="0.5025" style="stop-color:#F9B532"/>
		<stop  offset="1" style="stop-color:#FFFFFF"/>
	</linearGradient>
	<path style="fill-rule:evenodd;clip-rule:evenodd;fill:url(#SVGID_00000102511437664529990910000005058731720122262959_);" d="
		M9,21.4l-4.8-4.5l2.9,1.7c0.4,0.3,0.7,0.3,0.7-0.3l0-2.3c0-0.6,0.1-1,0.2-1.3c0.7-0.4,1.2,0.5,1.4,1.1l1.3,4.2
		C10.7,21.1,10.2,22.4,9,21.4L9,21.4z"/>
</g>
</svg>
