<?xml version="1.0" encoding="utf-8"?>
<!-- Generator: Adobe Illustrator 26.3.1, SVG Export Plug-In . SVG Version: 6.00 Build 0)  -->
<svg version="1.1" id="Layer_1" xmlns="http://www.w3.org/2000/svg" xmlns:xlink="http://www.w3.org/1999/xlink" x="0px" y="0px"
	 viewBox="0 0 498.2 510.8" style="enable-background:new 0 0 498.2 510.8;" xml:space="preserve">
<path id="wGO5nf.tif" d="M284.3,0c8,1,16.1,1.8,24.1,3c28.4,4.4,54.7,14.5,79.1,29.6c29.2,18,53.4,41.2,72.6,69.6
	c18,26.5,30.7,55.4,35.1,87.3c2.2,16.4,2.6,33.1,3,49.6c0.3,12.1-7.3,19.4-19.1,19.6c-12.4,0.3-20.1-6.7-20.8-19.1
	c-1.6-28.5-7.1-56.1-16.9-82.9c-17.1-46.8-48.8-79.4-95.1-97.8c-25.1-10-51.2-16-78-18.9c-12.6-1.4-19.3-6.7-19.5-17.6
	c-0.2-9.7,4-20,17.3-21.8c0.5-0.1,0.9-0.4,1.3-0.7C273,0,278.7,0,284.3,0z M3.2,138.2c4.5,19.7,13.7,37.6,22.2,55.6
	C51.1,248,83.9,297.6,124,342.2c26.9,29.9,56.7,56.7,89,80.6c43.5,32.3,90.5,58.7,140.3,80c13.4,5.7,27.3,10.4,42.5,6.6
	c37.2-9.3,64-31.6,81-65.3c12.9-25.8,7.9-46.4-14.3-64.5c-10.9-8.9-22-17.8-33.5-26c-16.3-11.7-31.9-24.6-50.5-32.7
	c-14.2-6.3-28.8-7.9-43.4-1.3c-11.4,5.1-19.5,14-27,23.8c-3.7,4.9-8.2,9.8-13.4,12.9c-10,5.9-20,1.8-29.4-2.6
	c-21.5-10-41.4-22.4-59.1-38.3c-23.4-21-41.1-46-52.6-75.2c-7.1-18.1-3-31.1,12.5-42.8c3.8-2.9,7.9-5.6,11.6-8.7
	c15.6-13,23.3-31.8,13.1-53.3c-16.9-36-40.4-67.4-68.8-95.1C111,29.4,97.7,23.4,82.5,26.3C71.8,28.3,61,32,51.2,37
	C19.4,53.1,1.2,78.6,0,118.1C0.7,122.9,1.5,130.6,3.2,138.2z M430.6,204.3c-0.4-4.8-0.7-9.6-1.6-14.3
	c-9.2-44.3-34.4-77.2-72.4-100.9c-19.6-12.2-41.2-19-63.9-22c-7-0.9-14.3-1.6-21.3-0.7c-9,1.2-14.9,10.5-14.8,21
	c0,8.9,5.8,16,15.3,18.4c15.9,4.1,32,7.2,47.6,12.2c19.4,6.1,36.2,16.6,48.2,33.6c12.7,17.9,17.9,38.5,21.7,59.7
	c1.4,7.8,1.8,15.8,3.9,23.4c2.3,8.5,10,12.7,19,11.8c10.3-1,16.6-6,18.1-14.8c0.7-4.4,0.9-8.9,1.3-12.8
	C431.2,213.6,431,208.9,430.6,204.3z M365.7,199.7c-5.2-23.8-19.2-41.6-39-55c-13.8-9.3-28.8-14.2-45.7-10.9
	c-9.6,1.9-16.1,9.3-16.7,19.1c-0.6,10.2,3.4,15.7,14.3,19c3.9,1.2,8,1.9,12.1,2.8c16.6,4,28.4,13.3,33,30.2
	c1.8,6.7,2.6,13.7,4.7,20.2c2.8,8.7,10.2,13.6,18.8,13.4c9.2-0.3,15.7-5.4,18.2-14.7c1-3.7,1.3-7.5,1.8-10.9
	C366.8,208.2,366.6,203.9,365.7,199.7z"/>
</svg>
