<?xml version="1.0" encoding="utf-8"?>
<!-- Generator: Adobe Illustrator 28.0.0, SVG Export Plug-In . SVG Version: 6.00 Build 0)  -->
<svg version="1.1" id="Layer_1" xmlns="http://www.w3.org/2000/svg" xmlns:xlink="http://www.w3.org/1999/xlink" x="0px" y="0px"
	 viewBox="0 0 539.9 569.3" style="enable-background:new 0 0 539.9 569.3;" xml:space="preserve">
<g>
	<path d="M535.4,543.7c2.6,3,3.8,6.4,3.6,10.3c-0.2,3.9-1.8,7.1-4.7,9.7c-1.1,1.5-2.5,2.5-4.2,3c-1.7,0.6-3.4,0.8-5.3,0.8
		c-1.9,0-3.7-0.4-5.5-1.1c-1.9-0.7-3.5-1.9-5-3.3l-168.5-184c-18.8,15.2-39.6,26.7-62.3,34.6c-22.7,8-46.3,11.9-70.7,11.9
		c-28.5,0-55.6-5.3-81.5-16.1c-25.9-10.7-49-26-69.3-46c-20-20.3-35.3-43.4-46-69.3C5.3,268.4,0,241.3,0,212.8
		c0-28.4,5.3-55.6,16.1-81.5c10.7-25.9,26-48.8,46-68.7c20.3-20.3,43.4-35.8,69.3-46.6C157.2,5.4,184.4,0,212.8,0
		c28.4,0,55.6,5.4,81.5,16.1c25.9,10.7,48.9,26.2,69.3,46.6c20,20,35.3,42.9,46,68.7c10.7,25.9,16.1,53,16.1,81.5
		c0,27.7-5.1,54.2-15.2,79.5c-10.2,25.3-24.7,47.8-43.5,67.3L535.4,543.7z M28.3,212.8c0,25.5,4.9,49.4,14.7,71.8
		c9.8,22.4,23,41.9,39.6,58.7c16.6,16.8,36.1,30,58.5,39.6c22.3,9.6,46.3,14.4,71.8,14.4s49.4-4.8,71.8-14.4
		c22.3-9.6,41.8-22.8,58.5-39.6c16.6-16.8,29.8-36.4,39.6-58.7c9.8-22.3,14.7-46.3,14.7-71.8s-4.9-49.4-14.7-71.8
		c-9.8-22.3-23-41.8-39.6-58.5S306.9,52.7,284.6,43c-22.4-9.8-46.3-14.7-71.8-14.7S163.4,33.2,141,43c-22.4,9.8-41.8,23-58.5,39.6
		S52.7,118.7,43,141C33.2,163.4,28.3,187.3,28.3,212.8z"/>
</g>
</svg>
