<?xml version="1.0" standalone="no"?>
<!DOCTYPE svg PUBLIC "-//W3C//DTD SVG 20010904//EN"
 "http://www.w3.org/TR/2001/REC-SVG-20010904/DTD/svg10.dtd">
<svg version="1.0" xmlns="http://www.w3.org/2000/svg"
 width="400.000000pt" height="400.000000pt" viewBox="0 0 400.000000 400.000000"
 preserveAspectRatio="xMidYMid meet">
<metadata>
Created by potrace 1.14, written by Peter Selinger 2001-2017
</metadata>
<g transform="translate(0.000000,400.000000) scale(0.100000,-0.100000)"
fill="#000000" stroke="none">
<path d="M3500 3951 c-36 -10 -99 -32 -140 -50 -80 -36 -115 -54 -485 -254
-132 -72 -260 -141 -285 -154 -25 -13 -67 -36 -95 -51 -51 -28 -554 -301 -635
-344 -25 -13 -76 -42 -115 -63 -38 -21 -98 -53 -133 -72 -34 -18 -79 -43 -100
-55 -20 -11 -66 -36 -102 -55 -36 -19 -110 -59 -165 -89 -55 -30 -118 -64
-140 -75 -22 -11 -58 -30 -80 -43 -22 -12 -74 -40 -115 -63 -41 -22 -100 -54
-130 -71 -30 -16 -165 -89 -300 -162 -266 -144 -315 -174 -373 -229 -69 -65
-87 -121 -58 -187 20 -44 95 -111 168 -149 21 -11 103 -55 183 -98 217 -118
288 -156 360 -194 l65 -34 -56 53 c-31 29 -105 98 -165 153 -278 256 -285 265
-260 313 19 37 41 48 441 222 193 84 368 160 390 170 22 10 126 55 230 100
105 45 213 92 240 105 28 12 95 42 150 65 55 23 119 51 142 61 79 36 1128 492
1184 515 106 44 193 50 237 17 60 -44 57 11 59 -1053 l1 -974 -34 79 c-19 44
-41 94 -48 110 -18 40 -156 358 -413 955 -102 237 -137 285 -248 336 -69 33
-103 30 -225 -15 -58 -22 -150 -56 -205 -76 -137 -49 -142 -52 -167 -104 -23
-46 -23 -48 -23 -523 0 -262 -3 -471 -7 -465 -3 7 -63 143 -132 304 -69 161
-135 311 -146 333 -31 60 -87 118 -142 146 -80 40 -128 34 -329 -42 -96 -36
-185 -76 -198 -89 -38 -37 -50 -118 -51 -334 -1 -108 -6 -203 -11 -213 -16
-30 -22 -28 -311 145 -71 42 -128 74 -128 72 0 -4 59 -61 136 -131 17 -16 78
-72 134 -124 57 -52 111 -102 120 -110 10 -8 66 -60 125 -115 59 -55 119 -108
134 -117 59 -38 107 -27 139 31 30 54 35 91 38 261 1 85 2 160 3 165 1 6 15
-15 30 -45 277 -552 354 -699 378 -721 15 -15 69 -48 118 -74 50 -27 158 -85
240 -129 174 -95 237 -123 285 -129 55 -6 85 9 106 54 16 36 18 77 20 397 1
196 3 393 4 437 l1 80 19 -40 c32 -71 251 -577 292 -675 22 -52 50 -117 63
-145 12 -27 55 -126 95 -220 102 -239 122 -276 178 -326 78 -70 256 -131 372
-128 70 2 138 29 176 71 34 37 91 158 104 223 17 84 20 298 20 1680 0 1201 -3
1601 -15 1660 -33 174 -79 255 -169 296 -53 24 -158 24 -246 0z"/>
</g>
</svg>
